{
  "accessors": [
    {
      "bufferView": 2,
      "componentType": 5126,
      "count": 281,
      "max": [
        1.0845990180969238,
        1.1029345989227295,
        1.7187986373901367
      ],
      "min": [
        -1.08526611328125,
        -1.1307696104049683,
        -1.684673547744751
      ],
      "type": "VEC3"
    },
    {
      "bufferView": 2,
      "byteOffset": 3372,
      "componentType": 5126,
      "count": 281,
      "max": [
        0.9944657683372498,
        0.9949823021888733,
        1.0
      ],
      "min": [
        -0.9980021715164185,
        -0.9999781847000122,
        -0.9953848123550415
      ],
      "type": "VEC3"
    },
    {
      "bufferView": 1,
      "componentType": 5126,
      "count": 281,
      "max": [
        0.9997361302375793,
        0.7289593815803528
      ],
      "min": [
        0.00026393416919745505,
        0.00026393416919745505
      ],
      "type": "VEC2"
    },
    {
      "bufferView": 0,
      "componentType": 5125,
      "count": 840,
      "type": "SCALAR"
    }
  ],
  "asset": {
    "extras": {
      "author": "DidE (https://sketchfab.com/DidE)",
      "license": "CC-BY-4.0 (http://creativecommons.org/licenses/by/4.0/)",
      "source": "https://sketchfab.com/3d-models/strawberry-low-poly-fruit-88afb31d1e5e4b31af2777e31ace429c",
      "title": "Strawberry low poly fruit"
    },
    "generator": "Sketchfab-12.68.0",
    "version": "2.0"
  },
  "bufferViews": [
    {
      "buffer": 0,
      "byteLength": 3360,
      "name": "floatBufferViews",
      "target": 34963
    },
    {
      "buffer": 0,
      "byteLength": 2248,
      "byteOffset": 3360,
      "byteStride": 8,
      "name": "floatBufferViews",
      "target": 34962
    },
    {
      "buffer": 0,
      "byteLength": 6744,
      "byteOffset": 5608,
      "byteStride": 12,
      "name": "floatBufferViews",
      "target": 34962
    }
  ],
  "buffers": [
    {
      "byteLength": 12352,
      "uri": "scene.bin"
    }
  ],
  "extensionsRequired": [
    "KHR_materials_pbrSpecularGlossiness"
  ],
  "extensionsUsed": [
    "KHR_materials_pbrSpecularGlossiness"
  ],
  "images": [
    {
      "uri": "textures/strawberry_diffuse.jpeg"
    },
    {
      "uri": "textures/strawberry_specularGlossiness.jpeg"
    }
  ],
  "materials": [
    {
      "doubleSided": true,
      "extensions": {
        "KHR_materials_pbrSpecularGlossiness": {
          "diffuseFactor": [
            1.0,
            1.0,
            1.0,
            1.0
          ],
          "diffuseTexture": {
            "index": 0
          },
          "glossinessFactor": 0.4,
          "specularFactor": [
            0.020007621951219516,
            0.020007621951219516,
            0.020007621951219516
          ],
          "specularGlossinessTexture": {
            "index": 1
          }
        }
      },
      "name": "strawberry"
    }
  ],
  "meshes": [
    {
      "name": "strawberry_strawberry_0",
      "primitives": [
        {
          "attributes": {
            "NORMAL": 1,
            "POSITION": 0,
            "TEXCOORD_0": 2
          },
          "indices": 3,
          "material": 0,
          "mode": 4
        }
      ]
    }
  ],
  "nodes": [
    {
      "children": [
        1
      ],
      "matrix": [
        1.4545934200286865,
        0.0,
        0.0,
        0.0,
        0.0,
        3.229846212768198e-16,
        -1.4545934200286865,
        0.0,
        0.0,
        1.4545934200286865,
        3.229846212768198e-16,
        0.0,
        0.0,
        0.0,
        0.0,
        1.0
      ],
      "name": "Sketchfab_model"
    },
    {
      "children": [
        2
      ],
      "matrix": [
        1.0,
        0.0,
        0.0,
        0.0,
        0.0,
        0.0,
        1.0,
        0.0,
        0.0,
        -1.0,
        0.0,
        0.0,
        0.0,
        0.0,
        0.0,
        1.0
      ],
      "name": "e5fc944ebbd249f1b4362a3e3eaed367.fbx"
    },
    {
      "children": [
        3
      ],
      "name": "RootNode"
    },
    {
      "children": [
        4
      ],
      "matrix": [
        59.6104736328125,
        0.0,
        0.0,
        0.0,
        0.0,
        -9.711778863126665e-06,
        -59.61047363281171,
        0.0,
        0.0,
        59.61047363281171,
        -9.711778863126665e-06,
        0.0,
        0.0002764462842606008,
        11.62076473236084,
        -6.464251782745123e-05,
        1.0
      ],
      "name": "strawberry"
    },
    {
      "mesh": 0,
      "name": "strawberry_strawberry_0"
    }
  ],
  "samplers": [
    {
      "magFilter": 9729,
      "minFilter": 9987,
      "wrapS": 10497,
      "wrapT": 10497
    }
  ],
  "scene": 0,
  "scenes": [
    {
      "name": "Sketchfab_Scene",
      "nodes": [
        0
      ]
    }
  ],
  "textures": [
    {
      "sampler": 0,
      "source": 0
    },
    {
      "sampler": 0,
      "source": 1
    }
  ]
}
