{
  "accessors": [
    {
      "bufferView": 2,
      "componentType": 5126,
      "count": 504,
      "max": [
        -5.137199401855469,
        4.203789234161377,
        4.3339619636535645
      ],
      "min": [
        -9.139219284057617,
        2.531081199645996,
        0.8069674968719482
      ],
      "type": "VEC3"
    },
    {
      "bufferView": 2,
      "byteOffset": 6048,
      "componentType": 5126,
      "count": 504,
      "max": [
        0.9868272542953491,
        0.9999879002571106,
        0.9938924908638
      ],
      "min": [
        -0.9951726198196411,
        -1.0,
        -0.9766855835914612
      ],
      "type": "VEC3"
    },
    {
      "bufferView": 1,
      "componentType": 5126,
      "count": 504,
      "max": [
        1.0,
        0.8507086038589478
      ],
      "min": [
        0.0,
        -5.960464477539063e-07
      ],
      "type": "VEC2"
    },
    {
      "bufferView": 0,
      "componentType": 5125,
      "count": 972,
      "type": "SCALAR"
    },
    {
      "bufferView": 2,
      "byteOffset": 12096,
      "componentType": 5126,
      "count": 852,
      "max": [
        -4.217189788818359,
        6.039117336273193,
        5.656802654266357
      ],
      "min": [
        -9.156967163085938,
        2.536524772644043,
        0.6986703872680664
      ],
      "type": "VEC3"
    },
    {
      "bufferView": 2,
      "byteOffset": 22320,
      "componentType": 5126,
      "count": 852,
      "max": [
        0.9999978542327881,
        0.9994824528694153,
        0.9999978542327881
      ],
      "min": [
        -0.9999978542327881,
        -1.0,
        -0.9999978542327881
      ],
      "type": "VEC3"
    },
    {
      "bufferView": 1,
      "byteOffset": 4032,
      "componentType": 5126,
      "count": 852,
      "max": [
        0.9825407862663269,
        1.0
      ],
      "min": [
        5.551115123125783e-17,
        -5.551115123125783e-17
      ],
      "type": "VEC2"
    },
    {
      "bufferView": 0,
      "byteOffset": 3888,
      "componentType": 5125,
      "count": 1764,
      "type": "SCALAR"
    }
  ],
  "asset": {
    "extras": {
      "author": "beewee (https://sketchfab.com/beewee)",
      "license": "CC-BY-NC-4.0 (http://creativecommons.org/licenses/by-nc/4.0/)",
      "source": "https://sketchfab.com/3d-models/lowpoly-strawberries-abd6292205884e17a4bfd15f3f408b28",
      "title": "Lowpoly Strawberries"
    },
    "generator": "Sketchfab-12.66.0",
    "version": "2.0"
  },
  "bufferViews": [
    {
      "buffer": 0,
      "byteLength": 10944,
      "name": "floatBufferViews",
      "target": 34963
    },
    {
      "buffer": 0,
      "byteLength": 10848,
      "byteOffset": 10944,
      "byteStride": 8,
      "name": "floatBufferViews",
      "target": 34962
    },
    {
      "buffer": 0,
      "byteLength": 32544,
      "byteOffset": 21792,
      "byteStride": 12,
      "name": "floatBufferViews",
      "target": 34962
    }
  ],
  "buffers": [
    {
      "byteLength": 54336,
      "uri": "scene.bin"
    }
  ],
  "images": [
    {
      "uri": "textures/pasted__leaf_baseColor.png"
    },
    {
      "uri": "textures/pasted__blinn3_baseColor.png"
    }
  ],
  "materials": [
    {
      "doubleSided": true,
      "name": "pasted__leaf",
      "pbrMetallicRoughness": {
        "baseColorTexture": {
          "index": 0
        },
        "metallicFactor": 0.0,
        "roughnessFactor": 0.9207483816249483
      }
    },
    {
      "doubleSided": true,
      "name": "pasted__blinn3",
      "pbrMetallicRoughness": {
        "baseColorTexture": {
          "index": 1
        },
        "metallicFactor": 0.0,
        "roughnessFactor": 0.9207483816249483
      }
    }
  ],
  "meshes": [
    {
      "name": "pasted__polySurface65_pasted__leaf_0",
      "primitives": [
        {
          "attributes": {
            "NORMAL": 1,
            "POSITION": 0,
            "TEXCOORD_0": 2
          },
          "indices": 3,
          "material": 0,
          "mode": 4
        }
      ]
    },
    {
      "name": "pasted__polySurface65_pasted__blinn3_0",
      "primitives": [
        {
          "attributes": {
            "NORMAL": 5,
            "POSITION": 4,
            "TEXCOORD_0": 6
          },
          "indices": 7,
          "material": 1,
          "mode": 4
        }
      ]
    }
  ],
  "nodes": [
    {
      "children": [
        1
      ],
      "matrix": [
        1.0,
        0.0,
        0.0,
        0.0,
        0.0,
        2.220446049250313e-16,
        -1.0,
        0.0,
        0.0,
        1.0,
        2.220446049250313e-16,
        0.0,
        0.0,
        0.0,
        0.0,
        1.0
      ],
      "name": "Sketchfab_model"
    },
    {
      "children": [
        2
      ],
      "matrix": [
        1.0,
        0.0,
        0.0,
        0.0,
        0.0,
        0.0,
        1.0,
        0.0,
        0.0,
        -1.0,
        0.0,
        0.0,
        0.0,
        0.0,
        0.0,
        1.0
      ],
      "name": "4f7ab899948b4c2f901efe24bbdc6869.fbx"
    },
    {
      "children": [
        3
      ],
      "name": "RootNode"
    },
    {
      "children": [
        4
      ],
      "name": "group"
    },
    {
      "children": [
        5,
        6
      ],
      "matrix": [
        1.0,
        0.0,
        0.0,
        0.0,
        0.0,
        1.0,
        0.0,
        0.0,
        0.0,
        0.0,
        1.0,
        0.0,
        7.06632137298584,
        -2.6418917179107666,
        -2.9074175357818604,
        1.0
      ],
      "name": "pasted__polySurface65"
    },
    {
      "mesh": 0,
      "name": "pasted__polySurface65_pasted__leaf_0"
    },
    {
      "mesh": 1,
      "name": "pasted__polySurface65_pasted__blinn3_0"
    }
  ],
  "samplers": [
    {
      "magFilter": 9729,
      "minFilter": 9987,
      "wrapS": 10497,
      "wrapT": 10497
    }
  ],
  "scene": 0,
  "scenes": [
    {
      "name": "Sketchfab_Scene",
      "nodes": [
        0
      ]
    }
  ],
  "textures": [
    {
      "sampler": 0,
      "source": 0
    },
    {
      "sampler": 0,
      "source": 1
    }
  ]
}
